<svg width="14" height="22" viewBox="0 0 14 22" fill="none" xmlns="http://www.w3.org/2000/svg">
<path d="M6.55783 9.51527C6.59853 9.43047 6.66154 9.35907 6.73972 9.30914C6.81791 9.25921 6.90814 9.23274 7.00022 9.23274C7.09229 9.23274 7.18253 9.25921 7.26072 9.30914C7.3389 9.35907 7.40191 9.43047 7.44261 9.51527L8.91476 12.5777C8.95009 12.6514 9.00236 12.7152 9.06706 12.7635C9.13176 12.8118 9.20695 12.8433 9.28613 12.8551L12.5781 13.3463C12.6691 13.36 12.7546 13.3995 12.8249 13.4603C12.8951 13.5212 12.9474 13.6011 12.9759 13.6909C13.0043 13.7806 13.0077 13.8768 12.9857 13.9685C12.9637 14.0601 12.9172 14.1437 12.8514 14.2096L10.4693 16.5935C10.412 16.6508 10.3691 16.7215 10.3444 16.7996C10.3196 16.8776 10.3138 16.9607 10.3272 17.0416L10.8895 20.4078C10.9049 20.5009 10.8948 20.5965 10.8601 20.684C10.8254 20.7714 10.7677 20.8471 10.6933 20.9026C10.6189 20.9581 10.5309 20.9912 10.4392 20.9981C10.3475 21.0049 10.2558 20.9854 10.1744 20.9415L7.23004 19.3526C7.15925 19.3144 7.08046 19.2944 7.00047 19.2944C6.92047 19.2944 6.84168 19.3144 6.77089 19.3526L3.82658 20.9415C3.74512 20.9856 3.65325 21.0054 3.56139 20.9987C3.46953 20.992 3.38134 20.959 3.30681 20.9034C3.23228 20.8479 3.17439 20.772 3.13969 20.6844C3.10499 20.5968 3.09487 20.501 3.11048 20.4078L3.67271 17.0416C3.68625 16.9608 3.68044 16.8777 3.65579 16.7996C3.63113 16.7216 3.58836 16.6508 3.53116 16.5935L1.14908 14.2096C1.08314 14.1437 1.03649 14.0601 1.01441 13.9684C0.992321 13.8766 0.995683 13.7804 1.02411 13.6905C1.05254 13.6006 1.1049 13.5207 1.17527 13.4598C1.24565 13.3989 1.33122 13.3594 1.42231 13.3458L4.71431 12.8546C4.79344 12.8428 4.8686 12.8115 4.93329 12.7632C4.99799 12.715 5.05029 12.6513 5.08568 12.5777L6.55783 9.51527ZM12.9184 1H1.08201V6.06349L7.00022 8.59523L12.9184 6.06349V1Z" stroke="white" stroke-width="1.2" stroke-linecap="round" stroke-linejoin="round"/>
</svg>
