<svg width="20" height="21" viewBox="0 0 20 21" fill="none" xmlns="http://www.w3.org/2000/svg">
<path d="M19.9161 7.53973C19.8205 7.23049 19.6446 6.95486 19.408 6.74335C19.1714 6.53184 18.8833 6.39271 18.5755 6.34135L13.7459 5.52321L11.5071 0.988268C11.3645 0.699566 11.1484 0.457389 10.8824 0.288311C10.6164 0.119232 10.3109 0.0297852 9.9994 0.0297852C9.68788 0.0297852 9.38237 0.119232 9.11641 0.288311C8.85044 0.457389 8.6343 0.699566 8.49169 0.988268L6.25286 5.52321L1.4234 6.34135C1.11593 6.39351 0.828184 6.53295 0.591735 6.74436C0.355287 6.95578 0.179272 7.23099 0.0830053 7.53982C-0.0132619 7.84864 -0.026062 8.17914 0.0460095 8.49505C0.118081 8.81096 0.272239 9.10007 0.491569 9.33066L3.9374 12.9515L3.19157 17.9921C3.14371 18.3131 3.18172 18.6417 3.30142 18.9417C3.42112 19.2417 3.61787 19.5014 3.87003 19.6924C4.1222 19.8834 4.42 19.9982 4.73069 20.0241C5.04139 20.0501 5.35293 19.9862 5.63107 19.8396L9.9994 17.5425L14.3679 19.8396C14.646 19.9859 14.9575 20.0496 15.2681 20.0235C15.5786 19.9974 15.8763 19.8826 16.1284 19.6917C16.3804 19.5008 16.5772 19.2411 16.697 18.9413C16.8167 18.6415 16.8549 18.313 16.8074 17.9921L16.0615 12.9515L19.5074 9.33066C19.7274 9.10052 19.882 8.8114 19.9541 8.49531C20.0263 8.17922 20.0131 7.8485 19.9161 7.53973ZM18.5606 8.35192L14.6411 12.4706L15.4896 18.2041C15.5001 18.2727 15.4922 18.3431 15.4667 18.4073C15.4412 18.4716 15.3991 18.5273 15.3451 18.5681C15.2912 18.609 15.2274 18.6335 15.1609 18.6389C15.0944 18.6443 15.0278 18.6304 14.9684 18.5988L9.9994 15.9858L5.0304 18.5989C4.971 18.6305 4.90436 18.6444 4.83785 18.639C4.77135 18.6336 4.70758 18.6091 4.65361 18.5682C4.59964 18.5273 4.55758 18.4717 4.53209 18.4074C4.5066 18.3432 4.49867 18.2728 4.50919 18.2042L5.35773 12.4706L1.43819 8.35187C1.39139 8.30258 1.3585 8.24081 1.34313 8.17333C1.32776 8.10585 1.33051 8.03526 1.35107 7.9693C1.37163 7.90334 1.40921 7.84454 1.45969 7.79936C1.51018 7.75419 1.57161 7.72436 1.63728 7.71316L7.13065 6.78258L9.67727 1.62425C9.70773 1.56255 9.7539 1.51078 9.81073 1.47464C9.86755 1.4385 9.93283 1.41938 9.9994 1.41938C10.066 1.41938 10.1312 1.4385 10.1881 1.47464C10.2449 1.51078 10.2911 1.56255 10.3215 1.62425L12.8681 6.78258L18.3615 7.71316C18.4272 7.72436 18.4886 7.75419 18.5391 7.79936C18.5896 7.84454 18.6272 7.90334 18.6477 7.9693C18.6683 8.03526 18.671 8.10585 18.6557 8.17333C18.6403 8.24081 18.6075 8.30262 18.5606 8.35192Z" fill="white"/>
</svg>
