<svg width="14" height="4" viewBox="0 0 14 4" fill="none" xmlns="http://www.w3.org/2000/svg">
<path fill-rule="evenodd" clip-rule="evenodd" d="M12.832 2.55991C12.9058 2.45073 12.9572 2.32805 12.9834 2.19892C13.0096 2.06979 13.0101 1.93675 12.9847 1.80745C12.9593 1.67816 12.9086 1.55515 12.8356 1.4455C12.7625 1.33586 12.6685 1.24173 12.5589 1.16853C12.4494 1.09534 12.3264 1.04452 12.1971 1.01899C12.0679 0.993464 11.9348 0.993737 11.8057 1.01979C11.6765 1.04584 11.5538 1.09717 11.4445 1.17081C11.3353 1.24445 11.2416 1.33896 11.169 1.44891C11.0335 1.66929 10.9887 1.93361 11.044 2.18634C11.0993 2.43907 11.2504 2.66054 11.4655 2.80422C11.6806 2.94791 11.9431 3.00262 12.1977 2.95688C12.4523 2.91113 12.6793 2.76849 12.831 2.55891L12.832 2.55991ZM8 2.00391C8 2.26912 7.89464 2.52348 7.70711 2.71101C7.51957 2.89855 7.26522 3.00391 7 3.00391C6.73478 3.00391 6.48043 2.89855 6.29289 2.71101C6.10536 2.52348 6 2.26912 6 2.00391C6 1.73869 6.10536 1.48434 6.29289 1.2968C6.48043 1.10926 6.73478 1.00391 7 1.00391C7.26522 1.00391 7.51957 1.10926 7.70711 1.2968C7.89464 1.48434 8 1.73869 8 2.00391ZM3 2.00391C3 2.26912 2.89464 2.52348 2.70711 2.71101C2.51957 2.89855 2.26522 3.00391 2 3.00391C1.73478 3.00391 1.48043 2.89855 1.29289 2.71101C1.10536 2.52348 1 2.26912 1 2.00391C1 1.73869 1.10536 1.48434 1.29289 1.2968C1.48043 1.10926 1.73478 1.00391 2 1.00391C2.26522 1.00391 2.51957 1.10926 2.70711 1.2968C2.89464 1.48434 3 1.73869 3 2.00391Z" fill="#828282" stroke="#BDBDBD" stroke-width="0.5"/>
</svg>
