<svg width="800" height="800" viewBox="0 0 800 800" fill="none" xmlns="http://www.w3.org/2000/svg">
<path d="M713.121 215.326H600.267L551.201 85.9383H379.467V694.062H713.121C738.881 694.062 759.735 672.065 759.735 644.894V264.494C759.735 237.322 738.881 215.326 713.121 215.326Z" fill="#CCCCCC"/>
<path d="M121.866 215.326H170.934V150.631H121.866V215.326Z" fill="#B6B6B6"/>
<path d="M94.8801 215.326H207.734L256.8 85.9383H428.535V694.062H94.8801C69.1201 694.062 48.2662 672.065 48.2662 644.894V264.494C48.2662 237.322 69.1201 215.326 94.8801 215.326Z" fill="white"/>
<path d="M563.467 215.326L514.401 85.9383H293.601L244.534 215.326H131.68C105.92 215.326 85.0663 237.322 85.0663 264.494V644.894C85.0663 672.065 105.92 694.062 131.68 694.062H675.095C700.855 694.062 721.709 672.065 721.709 644.894V264.494C721.709 237.322 700.855 215.326 675.095 215.326H563.467V215.326Z" fill="#E2E3E5"/>
<path d="M612.535 422.346C612.535 543.97 519.309 642.306 404.001 642.306C288.693 642.306 195.467 543.971 195.467 422.346C195.467 300.72 288.694 202.387 404.001 202.387C519.307 202.387 612.535 300.722 612.535 422.346Z" fill="#CCCCCC"/>
<path d="M538.935 422.346C538.935 501.272 478.829 564.673 404.001 564.673C329.173 564.673 269.067 501.273 269.067 422.346C269.067 343.418 329.173 280.019 404.001 280.019C478.829 280.019 538.935 343.42 538.935 422.346Z" fill="#E0E0E0"/>
<path d="M502.135 422.346C502.135 501.272 449.388 564.673 385.601 564.673C321.813 564.673 269.067 501.273 269.067 422.346C269.067 343.418 321.813 280.019 385.601 280.019C449.388 280.019 502.135 343.42 502.135 422.346Z" fill="#F0F0F0"/>
<path d="M710.668 305.897C710.668 327.893 694.721 344.713 673.867 344.713C653.014 344.713 637.067 327.893 637.067 305.897C637.067 283.9 653.014 267.08 673.867 267.08C694.721 267.08 710.668 283.902 710.668 305.897Z" fill="#CCCCCC"/>
<path d="M713.121 707H94.8801C62.9862 707 36 678.535 36 644.894V264.494C36 230.852 62.9862 202.387 94.8801 202.387H199.147L244.533 80.7633C246.987 75.5883 251.893 73 256.799 73H551.2C556.106 73 561.013 75.5883 562.24 80.7633L608.854 202.387H713.12C745.014 202.387 772 230.852 772 264.494V644.894C772.001 678.534 745.015 707 713.121 707ZM94.8801 228.264C76.4801 228.264 60.5339 245.084 60.5339 264.492V644.892C60.5339 664.3 76.4801 681.12 94.8801 681.12H711.895C731.521 681.12 746.241 664.3 746.241 644.892V264.492C746.241 245.084 730.295 228.264 711.895 228.264H600.269C595.363 228.264 590.455 225.676 589.229 220.501L542.615 98.8766H265.387L220 220.501C217.547 225.676 212.64 228.264 207.734 228.264H94.8801Z" fill="#B6B6B6"/>
<path d="M404.001 655.244C282.56 655.244 183.2 550.44 183.2 422.346C183.2 294.252 282.56 189.448 404.001 189.448C525.441 189.448 624.801 294.252 624.801 422.346C624.801 550.44 525.441 655.244 404.001 655.244ZM404.001 215.326C296.054 215.326 207.734 308.485 207.734 422.346C207.734 536.207 296.054 629.367 404.001 629.367C511.947 629.367 600.267 536.208 600.267 422.347C600.267 308.486 511.947 215.326 404.001 215.326Z" fill="#B6B6B6"/>
<path d="M404.001 577.611C323.041 577.611 256.8 507.742 256.8 422.346C256.8 336.95 323.041 267.08 404.001 267.08C484.961 267.08 551.201 336.95 551.201 422.346C551.201 507.742 484.961 577.611 404.001 577.611ZM404.001 292.958C336.534 292.958 281.334 351.183 281.334 422.346C281.334 493.509 336.534 551.733 404.001 551.733C471.467 551.733 526.667 493.509 526.667 422.346C526.667 351.183 471.467 292.958 404.001 292.958Z" fill="#B6B6B6"/>
<path d="M170.934 228.264H121.866C114.506 228.264 109.6 223.089 109.6 215.326V150.631C109.6 142.868 114.506 137.693 121.866 137.693H170.933C178.293 137.693 183.199 142.868 183.199 150.631V215.326C183.2 223.089 178.294 228.264 170.934 228.264ZM134.134 202.387H158.668V163.571H134.134V202.387Z" fill="#B6B6B6"/>
<path d="M673.867 357.653C646.881 357.653 624.801 334.363 624.801 305.898C624.801 277.433 646.881 254.143 673.867 254.143C700.854 254.143 722.934 277.433 722.934 305.898C722.934 334.363 700.855 357.653 673.867 357.653ZM673.867 280.02C660.374 280.02 649.334 291.665 649.334 305.898C649.334 320.131 660.374 331.776 673.867 331.776C687.361 331.776 698.401 320.131 698.401 305.898C698.401 291.665 687.361 280.02 673.867 280.02Z" fill="#B6B6B6"/>
</svg>
