<svg width="26" height="26" viewBox="0 0 26 26" fill="none" xmlns="http://www.w3.org/2000/svg">
<path d="M17 24.9987H9V13.7987C9 13.5865 9.08429 13.3831 9.23431 13.233C9.38434 13.083 9.58783 12.9987 9.8 12.9987H16.2C16.4122 12.9987 16.6157 13.083 16.7657 13.233C16.9157 13.3831 17 13.5865 17 13.7987V24.9987V24.9987ZM24.2 24.9987H17V21.1321C17 20.9199 17.0843 20.7164 17.2343 20.5664C17.3843 20.4163 17.5878 20.3321 17.8 20.3321H24.2C24.4122 20.3321 24.6157 20.4163 24.7657 20.5664C24.9157 20.7164 25 20.9199 25 21.1321V24.1987C25 24.4109 24.9157 24.6144 24.7657 24.7644C24.6157 24.9144 24.4122 24.9987 24.2 24.9987V24.9987ZM9 24.9987V18.4654C9 18.2532 8.91572 18.0497 8.76569 17.8997C8.61566 17.7497 8.41217 17.6654 8.2 17.6654H1.8C1.58783 17.6654 1.38434 17.7497 1.23431 17.8997C1.08429 18.0497 1 18.2532 1 18.4654V24.1987C1 24.4109 1.08429 24.6144 1.23431 24.7644C1.38434 24.9144 1.58783 24.9987 1.8 24.9987H9V24.9987ZM11.408 3.81605L12.62 1.24672C12.6527 1.17327 12.706 1.11088 12.7735 1.06709C12.8409 1.0233 12.9196 1 13 1C13.0804 1 13.1591 1.0233 13.2265 1.06709C13.294 1.11088 13.3473 1.17327 13.38 1.24672L14.5933 3.81605L17.3027 4.23072C17.6507 4.28405 17.7893 4.73205 17.5373 4.98805L15.5773 6.98805L16.04 9.81205C16.0987 10.1747 15.736 10.4521 15.424 10.2801L13 8.94672L10.576 10.2801C10.2653 10.4507 9.90133 10.1747 9.96 9.81205L10.4227 6.98805L8.46267 4.98805C8.20933 4.73205 8.34933 4.28405 8.696 4.23072L11.408 3.81739V3.81605Z" stroke="#B8B8B8" stroke-width="1.3" stroke-linecap="round" stroke-linejoin="round"/>
</svg>
