<svg width="18" height="24" viewBox="0 0 18 24" fill="none" xmlns="http://www.w3.org/2000/svg">
<path d="M14.781 7.719C14.8508 7.78867 14.9063 7.87143 14.9441 7.96255C14.9819 8.05367 15.0013 8.15135 15.0013 8.25C15.0013 8.34865 14.9819 8.44633 14.9441 8.53745C14.9063 8.62857 14.8508 8.71133 14.781 8.781L12.156 11.406C12.0194 11.5425 11.8353 11.621 11.6423 11.6252C11.4492 11.6294 11.2619 11.5589 11.1195 11.4285L9.9945 10.401C9.85517 10.2651 9.77413 10.0803 9.76851 9.88576C9.7629 9.6912 9.83314 9.50207 9.9644 9.35835C10.0957 9.21462 10.2777 9.12756 10.4719 9.11555C10.6662 9.10354 10.8575 9.16753 11.0055 9.294L11.601 9.837L13.719 7.719C13.7887 7.64915 13.8714 7.59374 13.9626 7.55593C14.0537 7.51812 14.1513 7.49866 14.25 7.49866C14.3487 7.49866 14.4463 7.51812 14.5374 7.55593C14.6286 7.59374 14.7113 7.64915 14.781 7.719ZM14.781 16.281C14.9218 16.1404 15.001 15.9496 15.0012 15.7505C15.0013 15.5515 14.9224 15.3606 14.7817 15.2197C14.6411 15.0789 14.4503 14.9997 14.2513 14.9996C14.0523 14.9994 13.8613 15.0784 13.7205 15.219L11.601 17.337L11.0055 16.794C10.8575 16.6675 10.6662 16.6035 10.4719 16.6155C10.2777 16.6276 10.0957 16.7146 9.9644 16.8583C9.83314 17.0021 9.7629 17.1912 9.76851 17.3858C9.77413 17.5803 9.85517 17.7651 9.9945 17.901L11.1195 18.9285C11.2619 19.0585 11.4488 19.1286 11.6415 19.1245C11.8342 19.1203 12.0179 19.042 12.1545 18.906L14.7795 16.281H14.781ZM3.75 9C3.55109 9 3.36032 9.07902 3.21967 9.21967C3.07902 9.36032 3 9.55109 3 9.75C3 9.94891 3.07902 10.1397 3.21967 10.2803C3.36032 10.421 3.55109 10.5 3.75 10.5H7.5C7.69891 10.5 7.88968 10.421 8.03033 10.2803C8.17098 10.1397 8.25 9.94891 8.25 9.75C8.25 9.55109 8.17098 9.36032 8.03033 9.21967C7.88968 9.07902 7.69891 9 7.5 9H3.75ZM3 17.25C3 17.0511 3.07902 16.8603 3.21967 16.7197C3.36032 16.579 3.55109 16.5 3.75 16.5H7.5C7.69891 16.5 7.88968 16.579 8.03033 16.7197C8.17098 16.8603 8.25 17.0511 8.25 17.25C8.25 17.4489 8.17098 17.6397 8.03033 17.7803C7.88968 17.921 7.69891 18 7.5 18H3.75C3.55109 18 3.36032 17.921 3.21967 17.7803C3.07902 17.6397 3 17.4489 3 17.25ZM4.6275 1.5C4.78266 1.06113 5.07012 0.681193 5.45026 0.412542C5.8304 0.143892 6.28451 -0.00024372 6.75 3.09355e-07H11.25C11.7155 -0.00024372 12.1696 0.143892 12.5497 0.412542C12.9299 0.681193 13.2173 1.06113 13.3725 1.5H15.75C16.3467 1.5 16.919 1.73705 17.341 2.15901C17.7629 2.58097 18 3.15326 18 3.75V21.75C18 22.3467 17.7629 22.919 17.341 23.341C16.919 23.7629 16.3467 24 15.75 24H2.25C1.65326 24 1.08097 23.7629 0.659009 23.341C0.237053 22.919 0 22.3467 0 21.75V3.75C0 3.15326 0.237053 2.58097 0.659009 2.15901C1.08097 1.73705 1.65326 1.5 2.25 1.5H4.6275ZM6.75 1.5C6.55109 1.5 6.36032 1.57902 6.21967 1.71967C6.07902 1.86032 6 2.05109 6 2.25C6 2.44891 6.07902 2.63968 6.21967 2.78033C6.36032 2.92098 6.55109 3 6.75 3H11.25C11.4489 3 11.6397 2.92098 11.7803 2.78033C11.921 2.63968 12 2.44891 12 2.25C12 2.05109 11.921 1.86032 11.7803 1.71967C11.6397 1.57902 11.4489 1.5 11.25 1.5H6.75ZM4.6275 3H2.25C2.05109 3 1.86032 3.07902 1.71967 3.21967C1.57902 3.36032 1.5 3.55109 1.5 3.75V21.75C1.5 21.9489 1.57902 22.1397 1.71967 22.2803C1.86032 22.421 2.05109 22.5 2.25 22.5H15.75C15.9489 22.5 16.1397 22.421 16.2803 22.2803C16.421 22.1397 16.5 21.9489 16.5 21.75V3.75C16.5 3.55109 16.421 3.36032 16.2803 3.21967C16.1397 3.07902 15.9489 3 15.75 3H13.3725C13.2173 3.43887 12.9299 3.81881 12.5497 4.08746C12.1696 4.35611 11.7155 4.50024 11.25 4.5H6.75C6.28451 4.50024 5.8304 4.35611 5.45026 4.08746C5.07012 3.81881 4.78266 3.43887 4.6275 3Z" fill="#B8B8B8"/>
</svg>
