<svg width="30" height="24" viewBox="0 0 30 24" fill="none" xmlns="http://www.w3.org/2000/svg">
<path d="M26.4545 1H3.54545C2.14545 1 1 2.1 1 3.44444V18.1111C1 19.4556 2.14545 20.5556 3.54545 20.5556H9.90909V21.7778C9.90909 22.45 10.4818 23 11.1818 23H18.8182C19.5182 23 20.0909 22.45 20.0909 21.7778V20.5556H26.4545C27.8545 20.5556 28.9873 19.4556 28.9873 18.1111L29 3.44444C29 2.79614 28.7318 2.17438 28.2545 1.71596C27.7771 1.25754 27.1296 1 26.4545 1ZM25.1818 18.1111H4.81818C4.11818 18.1111 3.54545 17.5611 3.54545 16.8889V4.66667C3.54545 3.99444 4.11818 3.44444 4.81818 3.44444H25.1818C25.8818 3.44444 26.4545 3.99444 26.4545 4.66667V16.8889C26.4545 17.5611 25.8818 18.1111 25.1818 18.1111ZM18.1564 11.8411L13.0909 14.6278C12.2382 15.0922 11.1818 14.4933 11.1818 13.5644V7.99111C11.1818 7.05 12.2382 6.46333 13.0909 6.92778L18.1564 9.71444C19.0091 10.1911 19.0091 11.3644 18.1564 11.8411Z" stroke="#B8B8B8" stroke-width="1.3"/>
</svg>
